<svg width="801" height="238" viewBox="0 0 801 238" fill="none" xmlns="http://www.w3.org/2000/svg">
<path d="M794.899 209.107C794.899 212.091 794.31 215.046 793.167 217.803C792.024 220.559 790.349 223.064 788.237 225.173C786.126 227.282 783.619 228.954 780.86 230.094C778.102 231.234 775.145 231.819 772.161 231.816H28.0461C22.0151 231.822 16.2284 229.433 11.9588 225.175C7.68915 220.916 5.28618 215.137 5.27832 209.107V28.0149C5.28618 21.9827 7.6882 16.2002 11.957 11.937C16.2257 7.67378 22.0123 5.27842 28.0461 5.27686H772.155C775.141 5.27686 778.098 5.86504 780.858 7.0078C783.617 8.15057 786.124 9.82554 788.235 11.937C790.347 14.0485 792.021 16.5552 793.164 19.3139C794.306 22.0726 794.894 25.0292 794.893 28.0149L794.899 209.107Z" fill="white"/>
<path d="M772.161 237.098H28.0461C20.6165 237.097 13.491 234.149 8.233 228.901C2.97504 223.654 0.0141365 216.535 0 209.107L0 28.0209C0.010991 20.5896 2.96994 13.466 8.22773 8.21298C13.4855 2.95991 20.6128 0.00627231 28.0461 0L772.155 0C779.587 0.00940204 786.712 2.96405 791.97 8.21644C797.227 13.4688 800.187 20.5905 800.201 28.0209V209.107C800.213 224.547 787.61 237.098 772.161 237.098Z" fill="#27AE60"/>
<path d="M794.899 209.107C794.899 212.091 794.31 215.046 793.167 217.803C792.024 220.559 790.349 223.064 788.237 225.173C786.126 227.282 783.619 228.954 780.86 230.094C778.102 231.234 775.145 231.819 772.161 231.816H28.0461C22.0151 231.822 16.2284 229.433 11.9588 225.175C7.68915 220.916 5.28618 215.137 5.27832 209.107V28.0149C5.28618 21.9827 7.6882 16.2002 11.957 11.937C16.2257 7.67378 22.0123 5.27842 28.0461 5.27686H772.155C775.141 5.27686 778.098 5.86504 780.858 7.0078C783.617 8.15057 786.124 9.82554 788.235 11.937C790.347 14.0485 792.021 16.5552 793.164 19.3139C794.306 22.0726 794.894 25.0292 794.893 28.0149L794.899 209.107Z" fill="#27AE60"/>
<path d="M178.679 117.301C178.507 98.1917 194.33 88.8949 195.054 88.4621C186.092 75.4003 172.203 73.6157 167.322 73.4734C155.656 72.246 144.341 80.4519 138.398 80.4519C132.337 80.4519 123.186 73.5919 113.323 73.7935C100.632 73.9892 88.7583 81.3353 82.2465 92.7429C68.8076 116.003 78.8304 150.184 91.7059 168.985C98.1466 178.199 105.673 188.474 115.523 188.112C125.161 187.721 128.761 181.976 140.391 181.976C151.914 181.976 155.294 188.112 165.341 187.881C175.684 187.721 182.196 178.632 188.411 169.341C195.854 158.793 198.843 148.393 198.962 147.86C198.725 147.777 178.881 140.199 178.679 117.301ZM159.701 61.1053C164.884 54.6248 168.431 45.8082 167.446 36.8612C159.944 37.1932 150.562 42.0492 145.159 48.3874C140.379 53.9726 136.109 63.1271 137.212 71.7361C145.639 72.3646 154.292 67.485 159.701 61.1053Z" fill="white"/>
<path d="M772.161 0H373.59L529.703 237.098H772.161C779.592 237.092 786.717 234.14 791.975 228.89C797.232 223.639 800.193 216.519 800.207 209.089V28.0209C800.194 20.5901 797.235 13.4674 791.977 8.21471C786.72 2.96198 779.593 0.00783777 772.161 0Z" fill="url(#paint0_linear_26_5)"/>
<path d="M318.269 186.79H304.801L297.423 163.613H271.779L264.751 186.79H251.638L277.051 107.886H292.743L318.269 186.79ZM295.199 153.89L288.527 133.286C287.821 131.181 286.493 126.224 284.547 118.422H284.31C283.527 121.778 282.276 126.734 280.562 133.286L274.003 153.89H295.199ZM383.495 157.643C383.495 167.319 380.867 174.968 375.607 180.582C370.898 185.581 365.044 188.077 358.064 188.077C350.526 188.077 345.105 185.391 341.814 180.007V209.86H329.17V148.595C329.17 142.518 329.009 136.286 328.701 129.895H339.821L340.527 138.913H340.764C344.981 132.118 351.38 128.721 359.968 128.721C366.681 128.721 372.286 131.371 376.769 136.677C381.247 141.996 383.495 148.98 383.495 157.643ZM370.613 158.105C370.613 152.567 369.368 148.002 366.865 144.403C364.131 140.662 360.46 138.788 355.858 138.788C352.738 138.788 349.903 139.832 347.371 141.889C344.832 143.964 343.172 146.674 342.395 150.03C342.048 151.285 341.851 152.576 341.808 153.878V163.37C341.808 167.503 343.077 170.995 345.615 173.853C348.154 176.699 351.451 178.128 355.508 178.128C360.27 178.128 363.977 176.284 366.628 172.626C369.285 168.955 370.613 164.117 370.613 158.105ZM448.951 157.643C448.951 167.319 446.324 174.968 441.063 180.582C436.349 185.581 430.501 188.077 423.515 188.077C415.977 188.077 410.556 185.391 407.265 180.007V209.86H394.62V148.595C394.62 142.518 394.46 136.286 394.152 129.895H405.272L405.978 138.913H406.215C410.426 132.118 416.825 128.721 425.418 128.721C432.126 128.721 437.73 131.371 442.226 136.677C446.698 141.996 448.951 148.98 448.951 157.643ZM436.064 158.105C436.064 152.567 434.813 148.002 432.31 144.403C429.576 140.662 425.917 138.788 421.314 138.788C418.195 138.788 415.36 139.832 412.816 141.889C410.277 143.964 408.623 146.674 407.846 150.03C407.46 151.595 407.253 152.87 407.253 153.878V163.37C407.253 167.503 408.528 170.995 411.054 173.853C413.593 176.693 416.89 178.128 420.959 178.128C425.727 178.128 429.433 176.284 432.079 172.626C434.735 168.955 436.064 164.117 436.064 158.105ZM522.136 164.657C522.136 171.375 519.787 176.835 515.12 181.051C509.984 185.652 502.814 187.958 493.621 187.958C485.128 187.958 478.32 186.322 473.184 183.043L476.108 172.507C481.653 175.792 487.744 177.428 494.374 177.428C499.142 177.428 502.849 176.349 505.494 174.209C508.145 172.062 509.486 169.193 509.486 165.611C509.486 162.404 508.376 159.718 506.2 157.53C504.011 155.348 500.394 153.315 495.311 151.447C481.493 146.294 474.578 138.759 474.578 128.845C474.578 122.371 477.021 117.07 481.896 112.926C486.771 108.787 493.236 106.718 501.277 106.718C508.46 106.718 514.444 107.969 519.194 110.465L516.021 120.77C511.549 118.351 506.502 117.141 500.856 117.141C496.397 117.141 492.897 118.238 490.395 120.42C488.289 122.371 487.222 124.748 487.222 127.57C487.222 130.683 488.438 133.268 490.857 135.296C492.957 137.164 496.788 139.197 502.327 141.379C509.124 144.118 514.117 147.308 517.314 150.973C520.534 154.637 522.136 159.208 522.136 164.657ZM564.048 139.381H550.111V167.005C550.111 174.031 552.566 177.535 557.488 177.535C559.748 177.535 561.622 177.345 563.105 176.948L563.455 186.547C560.964 187.478 557.684 187.946 553.622 187.946C548.628 187.946 544.726 186.423 541.908 183.375C539.103 180.327 537.692 175.223 537.692 168.036V139.357H529.389V129.871H537.692V119.453L550.111 115.706V129.871H564.048V139.381ZM626.806 157.874C626.806 166.619 624.303 173.8 619.31 179.414C614.085 185.195 607.134 188.077 598.469 188.077C590.107 188.077 583.459 185.308 578.501 179.776C573.543 174.232 571.064 167.248 571.064 158.823C571.064 150.006 573.626 142.784 578.732 137.17C583.85 131.549 590.742 128.738 599.406 128.738C607.757 128.738 614.464 131.513 619.541 137.051C624.392 142.423 626.806 149.36 626.806 157.874ZM613.699 158.165C613.699 152.953 612.572 148.482 610.313 144.741C607.662 140.223 603.866 137.964 598.95 137.964C593.885 137.964 590 140.223 587.355 144.741C585.09 148.482 583.963 153.03 583.963 158.402C583.963 163.619 585.09 168.102 587.355 171.831C590.089 176.349 593.903 178.608 598.843 178.608C603.676 178.608 607.466 176.302 610.206 171.718C612.531 167.888 613.699 163.388 613.699 158.165ZM667.923 141.012C666.608 140.774 665.274 140.657 663.938 140.662C659.49 140.662 656.05 142.334 653.63 145.702C651.531 148.666 650.475 152.413 650.475 156.937V186.79H637.831V147.812C637.842 141.84 637.72 135.868 637.463 129.901H648.477L648.939 140.786H649.289C650.629 137.045 652.729 134.027 655.611 131.768C658.249 129.794 661.455 128.725 664.75 128.721C665.919 128.721 666.974 128.804 667.911 128.952L667.923 141.012ZM724.472 155.651C724.504 157.572 724.349 159.492 724.009 161.384H686.077C686.219 167.005 688.058 171.309 691.581 174.274C694.777 176.918 698.911 178.246 703.988 178.246C709.604 178.246 714.728 177.357 719.336 175.56L721.317 184.33C715.932 186.678 709.574 187.846 702.238 187.846C693.413 187.846 686.486 185.249 681.445 180.067C676.416 174.879 673.895 167.906 673.895 159.172C673.895 150.599 676.238 143.454 680.929 137.757C685.84 131.673 692.476 128.632 700.827 128.632C709.029 128.632 715.238 131.673 719.455 137.757C722.794 142.577 724.472 148.553 724.472 155.651ZM712.415 152.372C712.504 148.619 711.674 145.387 709.96 142.654C707.771 139.132 704.403 137.377 699.889 137.377C695.756 137.377 692.387 139.091 689.825 142.529C687.72 145.263 686.468 148.548 686.083 152.36L712.415 152.372Z" fill="white"/>
<path d="M268.131 79.9894C264.614 79.9894 261.572 79.8175 259.04 79.527V41.3792C262.581 40.8322 266.161 40.5626 269.744 40.5728C284.245 40.5728 290.923 47.7055 290.923 59.3325C290.923 72.7441 283.035 79.9894 268.131 79.9894ZM270.254 45.4643C268.297 45.4643 266.631 45.5829 265.249 45.8675V74.8667C265.996 74.9853 267.431 75.0386 269.448 75.0386C278.949 75.0386 284.358 69.6313 284.358 59.5044C284.358 50.4744 279.465 45.4643 270.254 45.4643ZM311.733 80.28C303.561 80.28 298.265 74.1789 298.265 65.896C298.265 57.2632 303.674 51.1088 312.196 51.1088C320.25 51.1088 325.665 56.9193 325.665 65.4394C325.665 74.1789 320.084 80.28 311.733 80.28ZM311.971 55.6505C307.481 55.6505 304.605 59.8483 304.605 65.7181C304.605 71.4753 307.54 75.6731 311.911 75.6731C316.282 75.6731 319.218 71.1847 319.218 65.5995C319.218 59.9076 316.342 55.6505 311.971 55.6505ZM372.268 51.684L363.52 79.6456H357.821L354.197 67.5028C353.296 64.5326 352.546 61.5187 351.949 58.4728H351.831C351.374 61.5203 350.508 64.5738 349.589 67.5028L345.734 79.6456H339.975L331.744 51.684H338.131L341.298 64.977C342.045 68.1431 342.674 71.1314 343.196 73.9536H343.314C343.771 71.5998 344.518 68.6589 345.615 65.0363L349.589 51.6899H354.654L358.455 64.7517C359.375 67.9178 360.122 71.0247 360.703 73.9596H360.869C361.272 71.0839 361.907 68.0305 362.767 64.7517L366.165 51.6899L372.268 51.684ZM404.471 79.6456H398.256V63.5896C398.256 58.6447 396.358 56.1663 392.616 56.1663C388.933 56.1663 386.401 59.3325 386.401 63.0144V79.6456H380.185V59.6764C380.185 57.2039 380.126 54.5536 379.954 51.678H385.422L385.713 55.9944H385.885C387.557 53.0061 390.949 51.1088 394.751 51.1088C400.622 51.1088 404.477 55.5972 404.477 62.9018L404.471 79.6456ZM421.611 79.6456H415.39V38.8534H421.611V79.6456ZM444.272 80.28C436.105 80.28 430.803 74.1789 430.803 65.896C430.803 57.2632 436.212 51.1088 444.729 51.1088C452.788 51.1088 458.197 56.9193 458.197 65.4394C458.203 74.1789 452.616 80.28 444.272 80.28ZM444.503 55.6505C440.014 55.6505 437.137 59.8483 437.137 65.7181C437.137 71.4753 440.079 75.6731 444.438 75.6731C448.815 75.6731 451.745 71.1847 451.745 65.5995C451.75 59.9076 448.88 55.6505 444.503 55.6505ZM482.703 79.6456L482.252 76.4261H482.086C480.188 79.0171 477.418 80.28 473.907 80.28C468.896 80.28 465.338 76.7699 465.338 72.0504C465.338 65.1489 471.322 61.5796 481.683 61.5796V61.0638C481.683 57.3818 479.731 55.5379 475.876 55.5379C473.119 55.5379 470.699 56.2316 468.57 57.613L467.307 53.5279C469.892 51.9152 473.119 51.1088 476.908 51.1088C484.215 51.1088 487.904 54.9627 487.904 62.6765V72.9753C487.904 75.7976 488.028 77.9854 488.307 79.6515L482.703 79.6456ZM481.849 65.7181C474.945 65.7181 471.482 67.3901 471.482 71.3567C471.482 74.2916 473.267 75.7264 475.746 75.7264C478.907 75.7264 481.849 73.3133 481.849 70.0345V65.7181ZM518.085 79.6456L517.794 75.1572H517.622C515.837 78.5487 512.836 80.28 508.643 80.28C501.9 80.28 496.907 74.3509 496.907 66.0086C496.907 57.2632 502.084 51.1029 509.153 51.1029C512.896 51.1029 515.547 52.3658 517.041 54.9034H517.166V38.8534H523.387V72.1097C523.387 74.8133 523.452 77.3451 523.618 79.6456H518.085ZM517.166 63.1923C517.166 59.2791 514.574 55.941 510.618 55.941C506.01 55.941 503.193 60.0262 503.193 65.7774C503.193 71.416 506.117 75.2758 510.494 75.2758C514.402 75.2758 517.166 71.8784 517.166 67.8526V63.1923ZM562.832 80.28C554.665 80.28 549.369 74.1789 549.369 65.896C549.369 57.2632 554.778 51.1088 563.294 51.1088C571.354 51.1088 576.763 56.9193 576.763 65.4394C576.769 74.1789 571.188 80.28 562.832 80.28ZM563.063 55.6505C558.58 55.6505 555.703 59.8483 555.703 65.7181C555.703 71.4753 558.639 75.6731 563.004 75.6731C567.381 75.6731 570.31 71.1847 570.31 65.5995C570.322 59.9076 567.446 55.6505 563.063 55.6505ZM610.188 79.6456H603.967V63.5896C603.967 58.6447 602.069 56.1663 598.327 56.1663C594.644 56.1663 592.117 59.3325 592.117 63.0144V79.6456H585.896V59.6764C585.896 57.2039 585.837 54.5536 585.665 51.678H591.133L591.424 55.9944H591.596C593.262 53.0061 596.66 51.1029 600.456 51.1029C606.327 51.1029 610.188 55.5912 610.188 62.8959V79.6456ZM652.005 56.3442H645.167V69.9218C645.167 73.3785 646.365 75.1039 648.785 75.1039C649.882 75.1039 650.801 74.9853 651.543 74.8133L651.715 79.5329C650.511 79.9954 648.898 80.2266 646.893 80.2266C641.994 80.2266 639.065 77.5229 639.065 70.4436V56.3442H634.984V51.684H639.065V46.5612L645.167 44.7173V51.678H652.005V56.3442ZM684.909 79.6456H678.699V63.7082C678.699 58.704 676.807 56.1723 673.059 56.1723C669.839 56.1723 666.838 58.3601 666.838 62.7891V79.6456H660.628V38.8534H666.838V55.6505H666.962C668.92 52.603 671.754 51.1029 675.372 51.1029C681.291 51.1029 684.909 55.7039 684.909 63.0144V79.6456ZM718.618 67.1589H699.967C700.085 72.4536 703.59 75.4418 708.78 75.4418C711.537 75.4418 714.076 74.9794 716.317 74.1196L717.284 78.436C714.639 79.5863 711.525 80.1614 707.902 80.1614C699.154 80.1614 693.977 74.6355 693.977 66.0679C693.977 57.4945 699.279 51.0495 707.202 51.0495C714.348 51.0495 718.832 56.3442 718.832 64.3426C718.872 65.2865 718.801 66.2318 718.618 67.1589ZM712.919 62.7299C712.919 58.4135 710.743 55.3659 706.769 55.3659C703.199 55.3659 700.376 58.4728 699.972 62.7299H712.919Z" fill="white"/>
<defs>
<linearGradient id="paint0_linear_26_5" x1="586.892" y1="237.728" x2="586.892" y2="-617.364" gradientUnits="userSpaceOnUse">
<stop stop-color="#1A1A1A" stop-opacity="0.1"/>
<stop offset="0.123" stop-color="#212121" stop-opacity="0.151"/>
<stop offset="0.308" stop-color="#353535" stop-opacity="0.227"/>
<stop offset="0.532" stop-color="#575757" stop-opacity="0.318"/>
<stop offset="0.783" stop-color="#858585" stop-opacity="0.421"/>
<stop offset="1" stop-color="#B3B3B3" stop-opacity="0.51"/>
</linearGradient>
</defs>
</svg>
